<?xml version="1.0" encoding="UTF-8" standalone="no"?>
<!-- Created with Inkscape (http://www.inkscape.org/) -->

<svg
   width="25.114241mm"
   height="6.1278028mm"
   viewBox="0 0 25.114241 6.1278028"
   version="1.1"
   id="svg1"
   xmlns="http://www.w3.org/2000/svg"
   xmlns:svg="http://www.w3.org/2000/svg">
  <defs
     id="defs1" />
  <g
     id="layer1"
     transform="translate(-41.232668,-99.540377)">
    <path
       d="m 42.934468,102.82343 q -0.4445,0 -0.6223,0.1016 -0.17145,0.1016 -0.17145,0.3937 0,0.1905 0.1016,0.31115 0.10795,0.1143 0.27305,0.1143 0.12065,0 0.23495,-0.0572 0.1143,-0.0571 0.20955,-0.1651 l 0.0127,-0.6985 z m 0.7239,1.5875 q -0.14605,-0.0635 -0.27305,-0.1651 -0.12065,-0.1016 -0.18415,-0.2286 -0.0508,0.0508 -0.1016,0.0953 -0.04445,0.0444 -0.09525,0.0762 -0.24765,0.1778 -0.65405,0.1778 -0.5461,0 -0.83185,-0.26035 -0.28575,-0.2667 -0.28575,-0.75565 0,-0.57785 0.38735,-0.84455 0.3937,-0.27305 1.17475,-0.27305 0.0508,0 0.09525,0 0.04445,0 0.09525,0.006 v -0.13335 q 0,-0.27305 -0.0762,-0.37465 -0.06985,-0.10795 -0.3048,-0.10795 -0.2032,0 -0.43815,0.0953 -0.23495,0.0952 -0.50165,0.27305 l -0.36195,-0.6096 q 0.127,-0.0825 0.2413,-0.1397 0.1143,-0.0571 0.28575,-0.127 0.2413,-0.1016 0.45085,-0.14605 0.2159,-0.0444 0.43815,-0.0444 0.41275,0 0.67945,0.14605 0.27305,0.14605 0.3683,0.4191 0.01905,0.0508 0.0254,0.1016 0.0127,0.0444 0.01905,0.10795 0.0127,0.0635 0.0127,0.1524 0,0.0889 0,0.22225 l -0.01905,1.0922 q 0,0.13335 0.0064,0.23495 0.0063,0.0953 0.0381,0.1778 0.03175,0.0825 0.0889,0.15875 0.0635,0.0699 0.17145,0.1524 z m 3.155944,-0.0762 q -0.17145,-0.12065 -0.254,-0.3175 -0.15875,0.1524 -0.381,0.2286 -0.2159,0.0825 -0.47625,0.0825 -0.3429,0 -0.6096,-0.14605 -0.2667,-0.14605 -0.34925,-0.381 -0.0381,-0.10795 -0.05715,-0.254 -0.0127,-0.14605 -0.0127,-0.3937 v -2.0828 l 0.8382,-0.15875 v 2.08915 q 0,0.22225 0.01905,0.3429 0.01905,0.12065 0.0508,0.1905 0.03175,0.0698 0.1143,0.1143 0.0889,0.0381 0.18415,0.0381 0.15875,0 0.3175,-0.0952 0.15875,-0.0952 0.20955,-0.2159 v -2.286 l 0.8128,-0.17145 v 2.48285 q 0,0.1651 0.0508,0.32385 0.0508,0.1524 0.14605,0.2667 z m 3.136896,-1.7526 q 0,-0.22225 -0.0063,-0.3302 -0.0064,-0.1143 -0.03175,-0.22225 -0.0508,-0.20955 -0.1778,-0.31115 -0.12065,-0.1016 -0.28575,-0.1016 -0.1651,0 -0.28575,0.0889 -0.1143,0.0825 -0.19685,0.17145 v 1.4986 q 0.0889,0.0762 0.19685,0.14605 0.10795,0.0635 0.2794,0.0635 0.31115,0 0.41275,-0.254 0.05715,-0.13335 0.0762,-0.2921 0.01905,-0.15875 0.01905,-0.4572 z m 0.9652,-0.0191 q 0,0.4953 -0.1524,0.8763 -0.14605,0.37465 -0.45085,0.61595 -0.1651,0.13335 -0.33655,0.1905 -0.17145,0.0635 -0.37465,0.0635 -0.2413,0 -0.41275,-0.0699 -0.17145,-0.0762 -0.31115,-0.2286 -0.01905,0.0889 -0.03175,0.127 -0.0127,0.0381 -0.05715,0.10795 h -0.762 q 0.0254,-0.0571 0.0381,-0.10795 0.01905,-0.0508 0.0254,-0.12065 0.0127,-0.0762 0.0127,-0.18415 0.0063,-0.10795 0.0063,-0.2794 v -3.0099 q 0,-0.3048 -0.0127,-0.4826 -0.0127,-0.177803 -0.04445,-0.317503 l 0.86995,-0.2032 q 0.01905,0.1651 0.0254,0.2921 0.0064,0.12065 0.0064,0.285753 v 0.76835 q 0,0.0699 -0.0064,0.15875 0,0.0889 -0.0127,0.127 0.2413,-0.26035 0.69215,-0.26035 0.29845,0 0.5334,0.1143 0.2413,0.1143 0.4064,0.3302 0.17145,0.2159 0.26035,0.5207 0.0889,0.3048 0.0889,0.6858 z m 2.2606,1.73355 q -0.08255,0.23495 -0.15875,0.4064 -0.0762,0.1778 -0.1524,0.29845 -0.06985,0.127 -0.14605,0.2159 -0.0762,0.0889 -0.1651,0.1524 -0.1651,0.12065 -0.3683,0.1905 -0.19685,0.0762 -0.4191,0.10795 l -0.2921,-0.5588 q 0.1397,-0.0381 0.28575,-0.0953 0.14605,-0.0508 0.2413,-0.12065 0.13335,-0.0952 0.2413,-0.2667 0.03175,-0.0508 0.0508,-0.0889 0.0254,-0.0381 0.04445,-0.0825 0.01905,-0.0381 0.0381,-0.0889 0.01905,-0.0508 0.0508,-0.12065 h -0.2159 q -0.0381,-0.1143 -0.0889,-0.254 -0.04445,-0.14605 -0.0889,-0.2794 -0.04445,-0.13335 -0.08255,-0.23495 -0.03175,-0.10795 -0.04445,-0.14605 l -0.76835,-2.286 0.86995,-0.1016 0.56515,1.89865 q 0.01905,0.0699 0.04445,0.1778 0.03175,0.10795 0.05715,0.2159 0.0254,0.1016 0.04445,0.18415 0.01905,0.0762 0.0254,0.0952 0,-0.006 0.0064,-0.0635 0.0127,-0.0635 0.0254,-0.1397 0.01905,-0.0825 0.0381,-0.17145 0.01905,-0.0889 0.03175,-0.14605 0.01905,-0.0825 0.0508,-0.20955 0.0381,-0.127 0.0762,-0.2413 l 0.48895,-1.5494 h 0.89535 z m 4.914899,-0.0508 v -2.1463 q 0,-0.14605 -0.0127,-0.23495 -0.0063,-0.0889 -0.0381,-0.1397 -0.0254,-0.0508 -0.08255,-0.0699 -0.0508,-0.019 -0.13335,-0.019 -0.12065,0 -0.27305,0.0762 -0.1524,0.0699 -0.2921,0.19685 v 2.3368 h -0.80645 v -2.11455 q 0,-0.3048 -0.05715,-0.40005 -0.05715,-0.1016 -0.23495,-0.1016 -0.12065,0 -0.27305,0.0635 -0.14605,0.0572 -0.28575,0.18415 v 2.36855 h -0.83185 v -2.26695 q 0,-0.3556 -0.0254,-0.5334 -0.0254,-0.1778 -0.09525,-0.29845 l 0.76835,-0.20955 q 0.04445,0.0699 0.0635,0.1397 0.0254,0.0635 0.0508,0.1905 0.3429,-0.3302 0.79375,-0.3302 0.40005,0 0.6604,0.2667 0.0635,0.0635 0.127,0.15875 0.22225,-0.2286 0.43815,-0.32385 0.2159,-0.1016 0.4826,-0.1016 0.1905,0 0.36195,0.0572 0.17145,0.0508 0.2794,0.14605 0.06985,0.0571 0.1143,0.127 0.04445,0.0699 0.06985,0.1651 0.03175,0.0889 0.04445,0.2159 0.0127,0.12065 0.0127,0.28575 v 2.3114 z m 3.505195,-1.64465 q 0,-0.6477 -0.17145,-0.86995 -0.13335,-0.17145 -0.3683,-0.17145 -0.1524,0 -0.27305,0.0889 -0.1143,0.0889 -0.1651,0.2413 -0.04445,0.127 -0.06985,0.3048 -0.01905,0.1778 -0.01905,0.4191 0,0.56515 0.10795,0.81915 0.05715,0.13335 0.1778,0.2032 0.127,0.0635 0.254,0.0635 0.2794,0 0.40005,-0.26035 0.127,-0.26035 0.127,-0.8382 z m 0.9271,0.006 q 0,0.4191 -0.1016,0.71755 -0.09525,0.29845 -0.3048,0.53975 -0.18415,0.20955 -0.43815,0.3302 -0.254,0.12065 -0.635,0.12065 -0.3302,0 -0.60325,-0.12065 -0.2667,-0.12065 -0.4572,-0.33655 -0.1905,-0.22225 -0.29845,-0.5334 -0.1016,-0.31115 -0.1016,-0.69215 0,-0.381 0.1016,-0.69215 0.10795,-0.3175 0.29845,-0.53975 0.1905,-0.2286 0.4572,-0.34925 0.27305,-0.12065 0.60325,-0.12065 0.69215,0 1.1049,0.48895 0.19685,0.2286 0.28575,0.508 0.0889,0.2794 0.0889,0.67945 z m 2.286006,-0.86995 q -0.12065,-0.0635 -0.24765,-0.0635 -0.28575,0 -0.5207,0.27305 v 2.2987 h -0.8509 v -2.1717 q 0,-0.3302 -0.0381,-0.5715 -0.03175,-0.2413 -0.08255,-0.381 l 0.762,-0.2032 q 0.1143,0.2032 0.13335,0.46355 0.1397,-0.18415 0.3302,-0.32385 0.1905,-0.1397 0.4318,-0.1397 0.09525,0 0.1524,0.0127 0.0635,0.0127 0.1651,0.0572 z m 1.536701,-1.6383 q 0,0.22225 -0.1524,0.37465 -0.1524,0.1524 -0.37465,0.1524 -0.2159,0 -0.3683,-0.1524 -0.1524,-0.1524 -0.1524,-0.37465 0,-0.222253 0.1524,-0.374653 0.15875,-0.1524 0.381,-0.1524 0.2159,0 0.36195,0.1524 0.1524,0.1524 0.1524,0.374653 z m -0.9525,4.14655 v -3.19405 l 0.8509,-0.13335 v 3.3274 z"
       id="text1"
       style="font-size:6.35px;font-family:Meta;-inkscape-font-specification:Meta;stroke-width:0.264583;fill:#ffffff"
       aria-label="aubymori" />
  </g>
</svg>
